<?xml version="1.0" encoding="utf-8"?>
<!-- Generator: Adobe Illustrator 15.0.2, SVG Export Plug-In . SVG Version: 6.00 Build 0)  -->
<!DOCTYPE svg PUBLIC "-//W3C//DTD SVG 1.1//EN" "http://www.w3.org/Graphics/SVG/1.1/DTD/svg11.dtd">
<svg version="1.1" id="Calque_1" xmlns="http://www.w3.org/2000/svg" xmlns:xlink="http://www.w3.org/1999/xlink" x="0px" y="0px"
	 width="128px" height="34px" viewBox="0 0 128 34" enable-background="new 0 0 128 34" xml:space="preserve">
<path fill="#EEEBE8" d="M60,0H36c-2.2,0-4,1.8-4,4v25v1c0,2.199,1.8,4,4,4h24c2.2,0,4-1.801,4-4v-1V4C64,1.8,62.2,0,60,0z"/>
<path fill="#EEEBE8" d="M28,0H4C1.8,0,0,1.8,0,4v25v1c0,2.199,1.8,4,4,4h24c2.2,0,4-1.801,4-4v-1V4C32,1.8,30.2,0,28,0z"/>
<path fill="#EEEBE8" d="M92,0H68c-2.2,0-4,1.8-4,4v26c0,2.199,1.8,4,4,4h24c2.2,0,4-1.801,4-4V4C96,1.8,94.2,0,92,0z"/>
<path fill="#EEEBE8" d="M124,0h-24c-2.2,0-4,1.8-4,4v26c0,2.199,1.801,4,4,4h24c2.201,0,4-1.801,4-4V4C128,1.8,126.201,0,124,0z"/>
<g id="person_1_">
	<path fill="#808090" d="M48,17c1.925,0,3.5-1.575,3.5-3.5S49.925,10,48,10s-3.5,1.575-3.5,3.5S46.075,17,48,17z M48,18.75
		c-2.363,0-7,1.139-7,3.501V24h14v-1.749C55,19.889,50.363,18.75,48,18.75z"/>
</g>
<g id="person_2_" opacity="0.6">
	<path fill="#808090" d="M16,17c1.925,0,3.5-1.575,3.5-3.5S17.925,10,16,10s-3.5,1.575-3.5,3.5S14.075,17,16,17z M16,18.75
		c-2.363,0-7,1.139-7,3.501V24h14v-1.749C23,19.889,18.363,18.75,16,18.75z"/>
</g>
<g id="person_3_">
	<path fill="#808090" d="M80,17c1.924,0,3.5-1.575,3.5-3.5S81.924,10,80,10c-1.926,0-3.5,1.575-3.5,3.5S78.074,17,80,17z M80,18.75
		c-2.363,0-7,1.139-7,3.501V24h14v-1.749C87,19.889,82.363,18.75,80,18.75z"/>
</g>
<g id="person_4_">
	<path fill="#808090" d="M112,17c1.924,0,3.5-1.575,3.5-3.5S113.924,10,112,10c-1.926,0-3.5,1.575-3.5,3.5S110.074,17,112,17z
		 M112,18.75c-2.363,0-7,1.139-7,3.501V24h14v-1.749C119,19.889,114.363,18.75,112,18.75z"/>
</g>
</svg>
