<?xml version="1.0" encoding="utf-8"?>
<!-- Generator: Adobe Illustrator 15.0.2, SVG Export Plug-In . SVG Version: 6.00 Build 0)  -->
<!DOCTYPE svg PUBLIC "-//W3C//DTD SVG 1.1//EN" "http://www.w3.org/Graphics/SVG/1.1/DTD/svg11.dtd">
<svg version="1.1" id="Calque_1" xmlns="http://www.w3.org/2000/svg" xmlns:xlink="http://www.w3.org/1999/xlink" x="0px" y="0px"
	 width="25px" height="25px" viewBox="0 0 25 25" enable-background="new 0 0 25 25" xml:space="preserve">
<g id="search">
	<path fill="#000074" d="M14.785,13.67h-0.594l-0.224-0.223c0.744-0.816,1.189-1.931,1.189-3.12c0-2.674-2.156-4.828-4.83-4.828
		c-2.673,0-4.827,2.154-4.827,4.829c0,2.673,2.154,4.83,4.828,4.83c1.189,0,2.302-0.446,3.119-1.189l0.225,0.225v0.594l3.715,3.715
		l1.113-1.113L14.785,13.67z M10.329,13.67c-1.857,0-3.343-1.485-3.343-3.342s1.486-3.343,3.343-3.343s3.343,1.486,3.343,3.343
		S12.186,13.67,10.329,13.67z"/>
</g>
</svg>
