<?xml version="1.0" encoding="utf-8"?>
<!-- Generator: Adobe Illustrator 15.0.2, SVG Export Plug-In . SVG Version: 6.00 Build 0)  -->
<!DOCTYPE svg PUBLIC "-//W3C//DTD SVG 1.1//EN" "http://www.w3.org/Graphics/SVG/1.1/DTD/svg11.dtd">
<svg version="1.1" id="Calque_1" xmlns="http://www.w3.org/2000/svg" xmlns:xlink="http://www.w3.org/1999/xlink" x="0px" y="0px"
	 width="24px" height="24px" viewBox="0 0 24 24" enable-background="new 0 0 24 24" xml:space="preserve">
<path fill="#FFFBFF" d="M20.786,18.188l-3.394-3.395c-0.297-0.298-0.84-0.27-1.379,0.014l-1.481-1.478
	c1.93-2.521,1.745-6.14-0.56-8.447c-2.51-2.51-6.58-2.51-9.091,0c-2.51,2.511-2.51,6.582,0,9.091
	c2.307,2.307,5.926,2.488,8.446,0.56l1.479,1.478c-0.279,0.545-0.312,1.082-0.014,1.383l3.395,3.395
	c0.432,0.431,1.362,0.193,2.076-0.525C20.979,19.545,21.215,18.614,20.786,18.188z M5.833,13.016c-1.981-1.982-1.981-5.198,0-7.182
	c1.984-1.983,5.194-1.982,7.183,0c1.981,1.981,1.981,5.195,0,7.182C11.029,14.998,7.814,14.998,5.833,13.016z"/>
</svg>
