<?xml version="1.0" encoding="utf-8"?>
<!-- Generator: Adobe Illustrator 15.0.2, SVG Export Plug-In . SVG Version: 6.00 Build 0)  -->
<!DOCTYPE svg PUBLIC "-//W3C//DTD SVG 1.1//EN" "http://www.w3.org/Graphics/SVG/1.1/DTD/svg11.dtd">
<svg version="1.1" id="Calque_1" xmlns="http://www.w3.org/2000/svg" xmlns:xlink="http://www.w3.org/1999/xlink" x="0px" y="0px"
	 width="92px" height="56px" viewBox="0 0 92 56" enable-background="new 0 0 92 56" xml:space="preserve">
<g>
	<g>
		<g>
			<path fill="#FFFBFF" d="M56.901,12H35.099C32.294,12,30,14.294,30,17.099v21.802C30,41.706,32.294,44,35.099,44h21.802
				C59.706,44,62,41.706,62,38.901V17.099C62,14.294,59.706,12,56.901,12z M53.727,34.784c-0.167,0.315-0.397,0.581-0.692,0.798
				s-0.642,0.38-1.04,0.49c-0.396,0.112-0.83,0.168-1.297,0.168c-0.906,0-1.669-0.19-2.289-0.57v-1.254
				c0.169,0.135,0.354,0.253,0.553,0.359c0.198,0.104,0.403,0.195,0.613,0.272c0.211,0.075,0.422,0.132,0.636,0.17
				c0.213,0.038,0.417,0.057,0.61,0.057c1.332,0,1.999-0.499,1.999-1.499c0-0.229-0.047-0.426-0.141-0.591
				c-0.093-0.168-0.228-0.319-0.403-0.457c-0.176-0.137-0.386-0.265-0.631-0.381c-0.246-0.118-0.524-0.239-0.833-0.369
				c-0.415-0.169-0.772-0.341-1.07-0.517s-0.544-0.368-0.737-0.574c0-0.001-0.001-0.002-0.001-0.002
				c0.015,0.155,0.037,0.306,0.037,0.471c0,1.391-0.549,2.518-1.646,3.381c-1.098,0.861-2.481,1.292-4.153,1.292h-5.219V19.76h5.163
				c1.573,0,2.819,0.344,3.738,1.032c0.919,0.688,1.378,1.585,1.378,2.689c0,0.922-0.261,1.725-0.783,2.405
				c-0.521,0.681-1.243,1.165-2.167,1.452v0.046c1.12,0.128,2.014,0.542,2.683,1.241c0.16,0.168,0.3,0.35,0.422,0.541
				c0.023-0.319,0.093-0.613,0.236-0.872c0.172-0.311,0.404-0.573,0.696-0.79c0.294-0.216,0.631-0.382,1.014-0.495
				c0.383-0.114,0.785-0.172,1.207-0.172c0.775,0,1.454,0.147,2.032,0.439v1.184c-0.671-0.433-1.396-0.649-2.174-0.649
				c-0.28,0-0.536,0.036-0.769,0.105c-0.23,0.071-0.428,0.17-0.59,0.298c-0.165,0.129-0.291,0.282-0.382,0.46
				c-0.091,0.179-0.136,0.376-0.136,0.592c0,0.223,0.034,0.417,0.104,0.585c0.069,0.165,0.18,0.315,0.329,0.45
				c0.148,0.135,0.342,0.264,0.578,0.386c0.236,0.123,0.525,0.255,0.864,0.396c0.433,0.176,0.807,0.349,1.122,0.521
				c0.316,0.173,0.576,0.359,0.78,0.562c0.205,0.2,0.357,0.426,0.456,0.674c0.099,0.25,0.149,0.537,0.149,0.865
				C53.977,34.108,53.894,34.468,53.727,34.784z"/>
		</g>
	</g>
	<g>
		<path fill="#FFFBFF" d="M42.663,28.723h-1.951v5.15h2.302c1.006,0,1.784-0.233,2.332-0.697c0.548-0.465,0.822-1.105,0.822-1.922
			C46.169,29.565,45,28.723,42.663,28.723z"/>
	</g>
	<g>
		<path fill="#FFFBFF" d="M44.666,25.892c0.533-0.442,0.799-1.068,0.799-1.877c0-1.392-0.93-2.087-2.791-2.087h-1.962v4.628h1.747
			C43.397,26.556,44.132,26.335,44.666,25.892z"/>
	</g>
	<path fill="#FFFBFF" d="M40.712,21.928h1.962c1.86,0,2.791,0.695,2.791,2.087c0,0.81-0.266,1.436-0.799,1.877
		c-0.534,0.443-1.269,0.664-2.207,0.664h-1.747V21.928z M45.347,33.176c-0.548,0.464-1.326,0.697-2.332,0.697h-2.302v-5.15h1.951
		c2.337,0,3.506,0.843,3.506,2.531C46.169,32.07,45.895,32.711,45.347,33.176z"/>
</g>
</svg>
