<?xml version="1.0" encoding="utf-8"?>
<!-- Generator: Adobe Illustrator 15.0.2, SVG Export Plug-In . SVG Version: 6.00 Build 0)  -->
<!DOCTYPE svg PUBLIC "-//W3C//DTD SVG 1.1//EN" "http://www.w3.org/Graphics/SVG/1.1/DTD/svg11.dtd">
<svg version="1.1" id="Calque_1" xmlns="http://www.w3.org/2000/svg" xmlns:xlink="http://www.w3.org/1999/xlink" x="0px" y="0px"
	 width="80px" height="80px" viewBox="0 0 80 80" enable-background="new 0 0 80 80" xml:space="preserve">
<g display="none">
	<path display="inline" d="M41.5,2.333c-13.439,0-24.333,10.895-24.333,24.334c0,4.211,1.07,8.172,2.953,11.627l0,0l21.382,39.373
		L61.955,40H41.5V2.333z"/>
	<path display="inline" d="M67.835,24.334C67.835,10.895,56.939,0,43.5,0v37.667h20.455l0.927-1.706
		C66.766,32.506,67.835,28.545,67.835,24.334z"/>
</g>
<g>
	<g>
		<g>
			<path fill="#FFFBFF" d="M60.439,11H19.561C14.303,11,10,15.303,10,20.561v40.879C10,66.699,14.303,71,19.561,71h40.879
				C65.699,71,70,66.699,70,61.439V20.561C70,15.303,65.699,11,60.439,11z M54.486,53.719c-0.311,0.592-0.743,1.093-1.298,1.499
				c-0.552,0.405-1.201,0.712-1.948,0.917c-0.746,0.211-1.558,0.316-2.435,0.316c-1.699,0-3.128-0.356-4.29-1.072v-2.351
				c0.321,0.255,0.662,0.476,1.037,0.676c0.371,0.195,0.757,0.365,1.147,0.506c0.396,0.146,0.794,0.253,1.194,0.324
				c0.401,0.07,0.78,0.106,1.142,0.106c2.501,0,3.748-0.937,3.748-2.811c0-0.433-0.085-0.8-0.261-1.109
				c-0.175-0.313-0.43-0.598-0.757-0.857c-0.33-0.256-0.726-0.494-1.183-0.715c-0.461-0.221-0.982-0.45-1.563-0.691
				c-0.776-0.315-1.447-0.641-2.005-0.968c-0.561-0.33-1.021-0.689-1.383-1.079c-0.001-0.001-0.002-0.003-0.003-0.004
				c0.03,0.292,0.068,0.575,0.068,0.883c0,2.611-1.026,4.725-3.082,6.343c-2.063,1.613-4.654,2.423-7.789,2.423h-9.785V25.551h9.68
				c2.95,0,5.285,0.646,7.011,1.936c1.722,1.291,2.584,2.971,2.584,5.042c0,1.73-0.492,3.232-1.468,4.509
				c-0.979,1.276-2.333,2.183-4.063,2.723v0.086c2.097,0.24,3.776,1.019,5.029,2.328c0.3,0.313,0.563,0.653,0.793,1.012
				c0.04-0.597,0.175-1.147,0.44-1.636c0.325-0.576,0.76-1.072,1.312-1.479c0.546-0.403,1.18-0.715,1.896-0.927
				c0.718-0.216,1.472-0.321,2.259-0.321c1.458,0,2.73,0.273,3.817,0.822v2.22c-1.262-0.812-2.62-1.218-4.079-1.218
				c-0.525,0-1.004,0.065-1.44,0.195c-0.431,0.137-0.8,0.321-1.11,0.562c-0.305,0.241-0.543,0.528-0.713,0.864
				c-0.171,0.331-0.254,0.705-0.254,1.109c0,0.417,0.065,0.78,0.196,1.092c0.134,0.314,0.337,0.594,0.618,0.849
				c0.28,0.251,0.642,0.491,1.083,0.723c0.445,0.229,0.984,0.476,1.62,0.741c0.813,0.326,1.514,0.654,2.105,0.976
				c0.592,0.325,1.078,0.676,1.464,1.053c0.381,0.379,0.667,0.801,0.858,1.267c0.183,0.467,0.274,1.005,0.274,1.622
				C54.955,52.451,54.801,53.128,54.486,53.719z"/>
		</g>
	</g>
	<g>
		<path fill="#FFFBFF" d="M33.743,42.354h-3.657v9.659h4.317c1.885,0,3.343-0.435,4.371-1.308c1.028-0.872,1.543-2.076,1.543-3.606
			C40.317,43.936,38.126,42.354,33.743,42.354z"/>
	</g>
	<g>
		<path fill="#FFFBFF" d="M37.5,37.048c0.999-0.829,1.499-2.002,1.499-3.521c0-2.609-1.745-3.914-5.233-3.914h-3.679v8.68h3.274
			C35.119,38.293,36.5,37.877,37.5,37.048z"/>
	</g>
	<path fill="#FFFBFF" d="M30.086,29.613h3.679c3.488,0,5.233,1.305,5.233,3.914c0,1.519-0.5,2.692-1.499,3.521
		c-0.999,0.829-2.381,1.245-4.139,1.245h-3.274V29.613z M38.774,50.706c-1.028,0.873-2.486,1.308-4.371,1.308h-4.317v-9.659h3.657
		c4.383,0,6.574,1.581,6.574,4.745C40.317,48.63,39.802,49.834,38.774,50.706z"/>
</g>
</svg>
