<?xml version="1.0" encoding="utf-8"?>
<!-- Generator: Adobe Illustrator 15.0.2, SVG Export Plug-In . SVG Version: 6.00 Build 0)  -->
<!DOCTYPE svg PUBLIC "-//W3C//DTD SVG 1.1//EN" "http://www.w3.org/Graphics/SVG/1.1/DTD/svg11.dtd">
<svg version="1.1" id="Calque_1" xmlns="http://www.w3.org/2000/svg" xmlns:xlink="http://www.w3.org/1999/xlink" x="0px" y="0px"
	 width="128px" height="34px" viewBox="0 0 128 34" enable-background="new 0 0 128 34" xml:space="preserve">
<path fill="#EEEBE8" d="M60,0H36c-2.2,0-4,1.8-4,4v25v1c0,2.199,1.8,4,4,4h24c2.2,0,4-1.801,4-4v-1V4C64,1.8,62.2,0,60,0z"/>
<path fill="#EEEBE8" d="M28,0H4C1.8,0,0,1.8,0,4v25v1c0,2.199,1.8,4,4,4h24c2.2,0,4-1.801,4-4v-1V4C32,1.8,30.2,0,28,0z"/>
<path fill="#EEEBE8" d="M92,0H68c-2.2,0-4,1.8-4,4v26c0,2.199,1.8,4,4,4h24c2.2,0,4-1.801,4-4V4C96,1.8,94.2,0,92,0z"/>
<path fill="#EEEBE8" d="M124,0h-24c-2.2,0-4,1.8-4,4v26c0,2.199,1.801,4,4,4h24c2.201,0,4-1.801,4-4V4C128,1.8,126.201,0,124,0z"/>
<g id="home_1_">
	<polygon fill="#808090" points="46.353,24 46.353,19.059 49.646,19.059 49.646,24 53.766,24 53.766,17.412 56.236,17.412 48,10 
		39.764,17.412 42.233,17.412 42.233,24 	"/>
</g>
<g id="home_3_">
	<polygon fill="#808090" points="78.354,24 78.354,19.059 81.646,19.059 81.646,24 85.766,24 85.766,17.412 88.236,17.412 80,10 
		71.764,17.412 74.232,17.412 74.232,24 	"/>
</g>
<g id="home_4_">
	<polygon fill="#808090" points="110.354,24 110.354,19.059 113.646,19.059 113.646,24 117.766,24 117.766,17.412 120.236,17.412 
		112,10 103.764,17.412 106.232,17.412 106.232,24 	"/>
</g>
<g id="home_2_" opacity="0.6">
	<polygon fill="#808090" points="14.353,24 14.353,19.059 17.646,19.059 17.646,24 21.766,24 21.766,17.412 24.236,17.412 16,10 
		7.764,17.412 10.233,17.412 10.233,24 	"/>
</g>
</svg>
