<?xml version="1.0" encoding="utf-8"?>
<!-- Generator: Adobe Illustrator 15.0.2, SVG Export Plug-In . SVG Version: 6.00 Build 0)  -->
<!DOCTYPE svg PUBLIC "-//W3C//DTD SVG 1.1//EN" "http://www.w3.org/Graphics/SVG/1.1/DTD/svg11.dtd">
<svg version="1.1" id="Calque_1" xmlns="http://www.w3.org/2000/svg" xmlns:xlink="http://www.w3.org/1999/xlink" x="0px" y="0px"
	 width="128px" height="34px" viewBox="0 0 128 34" enable-background="new 0 0 128 34" xml:space="preserve">
<path fill="#EEEBE8" d="M60,0H36c-2.2,0-4,1.8-4,4v25v1c0,2.199,1.8,4,4,4h24c2.2,0,4-1.801,4-4v-1V4C64,1.8,62.2,0,60,0z"/>
<path fill="#EEEBE8" d="M28,0H4C1.8,0,0,1.8,0,4v25v1c0,2.199,1.8,4,4,4h24c2.2,0,4-1.801,4-4v-1V4C32,1.8,30.2,0,28,0z"/>
<path fill="#EEEBE8" d="M92,0H68c-2.2,0-4,1.8-4,4v26c0,2.199,1.8,4,4,4h24c2.2,0,4-1.801,4-4V4C96,1.8,94.2,0,92,0z"/>
<path fill="#EEEBE8" d="M124,0h-24c-2.2,0-4,1.8-4,4v26c0,2.199,1.801,4,4,4h24c2.201,0,4-1.801,4-4V4C128,1.8,126.201,0,124,0z"/>
<g id="email_1_">
	<path fill="#808090" d="M54.998,10H40.999c-0.963,0-1.75,0.788-1.75,1.75v10.501C39.248,23.213,40.036,24,40.999,24h14
		c0.965,0,1.752-0.787,1.752-1.749V11.75C56.75,10.788,55.963,10,54.998,10z M54.998,13.5l-6.999,4.376l-7-4.376v-1.75l7,4.375
		l6.999-4.375V13.5z"/>
</g>
<g id="email_3_">
	<path fill="#808090" d="M86.998,10H72.999c-0.963,0-1.75,0.788-1.75,1.75v10.501C71.248,23.213,72.036,24,72.999,24h14
		c0.965,0,1.752-0.787,1.752-1.749V11.75C88.75,10.788,87.963,10,86.998,10z M86.998,13.5l-6.999,4.376l-7-4.376v-1.75l7,4.375
		l6.999-4.375V13.5z"/>
</g>
<g id="email_4_">
	<path fill="#808090" d="M118.998,10h-13.999c-0.963,0-1.75,0.788-1.75,1.75v10.501c-0.001,0.962,0.787,1.749,1.75,1.749h14
		c0.965,0,1.752-0.787,1.752-1.749V11.75C120.75,10.788,119.963,10,118.998,10z M118.998,13.5l-6.999,4.376l-7-4.376v-1.75l7,4.375
		l6.999-4.375V13.5z"/>
</g>
<g id="email_2_" opacity="0.6">
	<path fill="#808090" d="M22.998,10H8.999c-0.963,0-1.75,0.788-1.75,1.75v10.501C7.248,23.213,8.036,24,8.999,24h14
		c0.965,0,1.752-0.787,1.752-1.749V11.75C24.75,10.788,23.963,10,22.998,10z M22.998,13.5l-6.999,4.376l-7-4.376v-1.75l7,4.375
		l6.999-4.375V13.5z"/>
</g>
</svg>
