<?xml version="1.0" encoding="utf-8"?>
<!-- Generator: Adobe Illustrator 15.0.2, SVG Export Plug-In . SVG Version: 6.00 Build 0)  -->
<!DOCTYPE svg PUBLIC "-//W3C//DTD SVG 1.1//EN" "http://www.w3.org/Graphics/SVG/1.1/DTD/svg11.dtd">
<svg version="1.1" id="Calque_1" xmlns="http://www.w3.org/2000/svg" xmlns:xlink="http://www.w3.org/1999/xlink" x="0px" y="0px"
	 width="35px" height="35px" viewBox="0 0 35 35" enable-background="new 0 0 35 35" xml:space="preserve">
<path fill="#FFFBFF" d="M29.641,26.05l-4.688-4.69c-0.411-0.41-1.158-0.371-1.906,0.02L21,19.336
	c2.665-3.482,2.413-8.484-0.773-11.672c-3.468-3.467-9.091-3.467-12.562,0c-3.468,3.469-3.468,9.096,0,12.563
	c3.188,3.188,8.189,3.438,11.671,0.771l2.042,2.042c-0.387,0.752-0.431,1.494-0.021,1.911l4.691,4.689
	c0.596,0.594,1.881,0.267,2.869-0.728C29.907,27.926,30.232,26.641,29.641,26.05z M8.978,18.902c-2.737-2.74-2.737-7.182,0-9.923
	c2.742-2.74,7.178-2.738,9.922,0c2.74,2.738,2.74,7.179,0,9.923C16.158,21.643,11.716,21.643,8.978,18.902z"/>
</svg>
