<?xml version="1.0" encoding="utf-8"?>
<!-- Generator: Adobe Illustrator 15.0.2, SVG Export Plug-In . SVG Version: 6.00 Build 0)  -->
<!DOCTYPE svg PUBLIC "-//W3C//DTD SVG 1.1//EN" "http://www.w3.org/Graphics/SVG/1.1/DTD/svg11.dtd">
<svg version="1.1" id="Calque_1" xmlns="http://www.w3.org/2000/svg" xmlns:xlink="http://www.w3.org/1999/xlink" x="0px" y="0px"
	 width="205px" height="205px" viewBox="0 0 205 205" enable-background="new 0 0 205 205" xml:space="preserve">
<g>
	<g>
		<g>
			<path fill="#FFFBFF" d="M151.893,30H53.107C40.397,30,30,40.397,30,53.107v98.785C30,164.601,40.397,175,53.107,175h98.785
				C164.601,175,175,164.601,175,151.893V53.107C175,40.397,164.601,30,151.893,30z M137.513,133.238
				c-0.756,1.432-1.808,2.635-3.14,3.616c-1.34,0.978-2.91,1.723-4.712,2.226c-1.799,0.504-3.758,0.756-5.876,0.756
				c-4.106,0-7.565-0.863-10.371-2.581v-5.682c0.769,0.605,1.604,1.15,2.501,1.625c0.902,0.478,1.828,0.887,2.782,1.233
				c0.955,0.343,1.912,0.6,2.877,0.775c0.968,0.174,1.891,0.255,2.767,0.255c6.039,0,9.058-2.264,9.058-6.792
				c0-1.035-0.213-1.927-0.638-2.68c-0.422-0.761-1.028-1.447-1.828-2.066c-0.791-0.624-1.743-1.201-2.86-1.73
				c-1.112-0.53-2.37-1.083-3.773-1.668c-1.88-0.769-3.493-1.547-4.849-2.347c-1.348-0.792-2.46-1.663-3.336-2.599
				c-0.002-0.003-0.005-0.008-0.008-0.011c0.066,0.705,0.168,1.387,0.168,2.135c0,6.304-2.488,11.412-7.457,15.316
				c-4.972,3.907-11.239,5.86-18.813,5.86H66.356V65.163h23.389c7.127,0,12.775,1.56,16.937,4.678
				c4.167,3.119,6.246,7.182,6.246,12.184c0,4.181-1.18,7.814-3.548,10.897c-2.362,3.087-5.636,5.28-9.816,6.581v0.207
				c5.072,0.582,9.124,2.46,12.158,5.63c0.727,0.761,1.355,1.581,1.909,2.449c0.107-1.445,0.422-2.782,1.072-3.952
				c0.778-1.405,1.835-2.596,3.16-3.576c1.324-0.981,2.853-1.731,4.586-2.245c1.738-0.517,3.559-0.776,5.468-0.776
				c3.521,0,6.592,0.664,9.212,1.988v5.362c-3.042-1.959-6.328-2.939-9.853-2.939c-1.269,0-2.428,0.16-3.475,0.478
				c-1.046,0.319-1.942,0.768-2.682,1.351c-0.74,0.584-1.316,1.276-1.726,2.084c-0.412,0.811-0.619,1.705-0.619,2.681
				c0,1.009,0.16,1.891,0.479,2.648c0.313,0.75,0.811,1.437,1.487,2.042c0.674,0.611,1.55,1.193,2.625,1.752
				c1.069,0.554,2.375,1.151,3.909,1.786c1.962,0.797,3.655,1.584,5.088,2.367c1.432,0.779,2.611,1.626,3.537,2.544
				c0.928,0.907,1.618,1.93,2.068,3.055c0.443,1.128,0.675,2.431,0.675,3.915C138.646,130.181,138.263,131.809,137.513,133.238z"/>
		</g>
	</g>
	<g>
		<path fill="#FFFBFF" d="M87.383,105.775h-8.844v23.341h10.436c4.559,0,8.079-1.057,10.565-3.165
			c2.484-2.106,3.726-5.009,3.726-8.709C103.266,109.596,97.971,105.775,87.383,105.775z"/>
	</g>
	<g>
		<path fill="#FFFBFF" d="M96.455,92.95c2.415-2.005,3.624-4.841,3.624-8.509c0-6.305-4.214-9.456-12.644-9.456h-8.895v20.97h7.918
			C90.707,95.955,94.04,94.956,96.455,92.95z"/>
	</g>
	<path fill="#FFFBFF" d="M78.539,74.985h8.895c8.43,0,12.644,3.15,12.644,9.456c0,3.668-1.208,6.504-3.624,8.509
		c-2.415,2.006-5.748,3.005-9.998,3.005h-7.918V74.985z M99.54,125.951c-2.486,2.108-6.006,3.165-10.565,3.165H78.539v-23.341h8.844
		c10.588,0,15.883,3.82,15.883,11.467C103.266,120.942,102.024,123.845,99.54,125.951z"/>
</g>
</svg>
