<?xml version="1.0" encoding="utf-8"?>
<!-- Generator: Adobe Illustrator 15.0.2, SVG Export Plug-In . SVG Version: 6.00 Build 0)  -->
<!DOCTYPE svg PUBLIC "-//W3C//DTD SVG 1.1//EN" "http://www.w3.org/Graphics/SVG/1.1/DTD/svg11.dtd">
<svg version="1.1" id="Calque_1" xmlns="http://www.w3.org/2000/svg" xmlns:xlink="http://www.w3.org/1999/xlink" x="0px" y="0px"
	 width="80px" height="80px" viewBox="0 0 80 80" enable-background="new 0 0 80 80" xml:space="preserve">
<g>
	<g>
		<g>
			<path fill="#FFFBFF" d="M58.395,13H21.605C16.872,13,13,16.872,13,21.605v36.789C13,63.127,16.872,67,21.605,67h36.789
				C63.127,67,67,63.127,67,58.395V21.605C67,16.872,63.127,13,58.395,13z M53.039,51.447c-0.281,0.533-0.673,0.981-1.169,1.347
				c-0.499,0.364-1.084,0.642-1.755,0.829c-0.67,0.188-1.399,0.281-2.188,0.281c-1.529,0-2.817-0.321-3.862-0.961v-2.116
				c0.286,0.226,0.598,0.429,0.932,0.605c0.336,0.178,0.681,0.33,1.036,0.459c0.355,0.128,0.712,0.224,1.071,0.289
				c0.36,0.064,0.704,0.095,1.03,0.095c2.249,0,3.373-0.843,3.373-2.529c0-0.386-0.079-0.718-0.237-0.998
				c-0.157-0.283-0.383-0.539-0.681-0.77c-0.295-0.232-0.649-0.447-1.065-0.645c-0.414-0.197-0.883-0.403-1.405-0.621
				c-0.7-0.286-1.301-0.576-1.806-0.874c-0.502-0.295-0.916-0.619-1.242-0.968c-0.001-0.001-0.002-0.003-0.003-0.004
				c0.024,0.263,0.063,0.517,0.063,0.795c0,2.348-0.927,4.25-2.777,5.704c-1.852,1.455-4.186,2.183-7.006,2.183H26.54V26.095h8.71
				c2.654,0,4.758,0.581,6.308,1.742c1.552,1.162,2.326,2.675,2.326,4.538c0,1.557-0.439,2.91-1.321,4.058
				c-0.88,1.15-2.099,1.966-3.656,2.451v0.077c1.889,0.217,3.398,0.916,4.528,2.097c0.271,0.283,0.505,0.589,0.711,0.912
				c0.04-0.538,0.157-1.036,0.399-1.472c0.29-0.523,0.684-0.967,1.177-1.332s1.063-0.645,1.708-0.836
				c0.647-0.192,1.325-0.289,2.036-0.289c1.312,0,2.455,0.247,3.431,0.74v1.997c-1.133-0.729-2.356-1.095-3.669-1.095
				c-0.473,0-0.904,0.06-1.294,0.178c-0.39,0.119-0.724,0.286-0.999,0.503c-0.275,0.218-0.49,0.476-0.643,0.776
				c-0.153,0.302-0.23,0.635-0.23,0.998c0,0.376,0.06,0.704,0.179,0.986c0.116,0.279,0.302,0.535,0.554,0.761
				c0.251,0.228,0.577,0.444,0.978,0.652c0.398,0.206,0.885,0.429,1.456,0.665c0.73,0.297,1.361,0.59,1.895,0.882
				c0.533,0.29,0.973,0.605,1.317,0.947c0.346,0.338,0.603,0.719,0.771,1.138c0.165,0.42,0.251,0.905,0.251,1.458
				C53.461,50.309,53.318,50.915,53.039,51.447z"/>
		</g>
	</g>
	<g>
		<path fill="#FFFBFF" d="M34.37,41.22h-3.293v8.692h3.886c1.698,0,3.009-0.394,3.935-1.179c0.925-0.784,1.388-1.865,1.388-3.243
			C40.285,42.643,38.313,41.22,34.37,41.22z"/>
	</g>
	<g>
		<path fill="#FFFBFF" d="M37.749,36.443c0.899-0.747,1.35-1.803,1.35-3.169c0-2.348-1.569-3.521-4.709-3.521h-3.313v7.81h2.949
			C35.608,37.563,36.849,37.19,37.749,36.443z"/>
	</g>
	<path fill="#FFFBFF" d="M31.077,29.753h3.313c3.14,0,4.709,1.173,4.709,3.521c0,1.366-0.45,2.422-1.35,3.169
		c-0.899,0.747-2.141,1.119-3.723,1.119h-2.949V29.753z M38.897,48.733c-0.926,0.785-2.237,1.179-3.935,1.179h-3.886V41.22h3.293
		c3.943,0,5.915,1.423,5.915,4.271C40.285,46.868,39.823,47.949,38.897,48.733z"/>
</g>
</svg>
