<?xml version="1.0" encoding="utf-8"?>
<!-- Generator: Adobe Illustrator 15.0.2, SVG Export Plug-In . SVG Version: 6.00 Build 0)  -->
<!DOCTYPE svg PUBLIC "-//W3C//DTD SVG 1.1//EN" "http://www.w3.org/Graphics/SVG/1.1/DTD/svg11.dtd">
<svg version="1.1" id="Calque_1" xmlns="http://www.w3.org/2000/svg" xmlns:xlink="http://www.w3.org/1999/xlink" x="0px" y="0px"
	 width="336px" height="243px" viewBox="0 0 336 243" enable-background="new 0 0 336 243" xml:space="preserve">
<rect x="0" y="20.943" fill="#FFFFFF" width="336" height="222.057"/>
<polygon fill="#D31147" points="0,20.943 336,20.943 336,83.494 0,83.494 "/>
<rect x="32.743" y="44.047" fill="#2E2E2D" width="36.529" height="7.668"/>
<rect x="12.743" y="73.537" fill="#2E2E2D" width="11.503" height="3.834"/>
<rect x="37.769" y="73.537" fill="#2E2E2D" width="11.503" height="3.834"/>
<rect x="62.788" y="73.537" fill="#2E2E2D" width="11.503" height="3.834"/>
<rect x="87.513" y="73.537" fill="#2E2E2D" width="11.503" height="3.834"/>
<rect x="112.539" y="73.537" fill="#2E2E2D" width="11.503" height="3.834"/>
<rect x="137.557" y="73.537" fill="#2E2E2D" width="11.503" height="3.834"/>
<rect x="151.702" y="96.705" fill="#2D2D2D" width="32.592" height="5.752"/>
<rect x="121.988" y="106.664" opacity="0.75" fill="#2D2D2D" enable-background="new    " width="92.024" height="1.918"/>
<rect x="153.619" y="190.604" fill="#2D2D2D" width="28.758" height="3.834"/>
<rect x="134.449" y="199.604" opacity="0.75" fill="#2D2D2D" enable-background="new    " width="67.102" height="1.916"/>
<rect x="134.449" y="206.754" opacity="0.75" fill="#2D2D2D" enable-background="new    " width="67.102" height="1.916"/>
<rect x="134.449" y="213.902" opacity="0.75" fill="#2D2D2D" enable-background="new    " width="67.102" height="1.918"/>
<rect x="134.449" y="221.049" opacity="0.75" fill="#2D2D2D" enable-background="new    " width="67.102" height="1.918"/>
<rect x="134.449" y="228.195" opacity="0.75" fill="#2D2D2D" enable-background="new    " width="67.102" height="1.918"/>
<rect x="257.662" y="190.604" fill="#2D2D2D" width="28.758" height="3.834"/>
<rect x="238.49" y="199.604" opacity="0.75" fill="#2D2D2D" enable-background="new    " width="67.101" height="1.916"/>
<rect x="238.49" y="206.754" opacity="0.75" fill="#2D2D2D" enable-background="new    " width="67.101" height="1.916"/>
<rect x="238.49" y="213.902" opacity="0.75" fill="#2D2D2D" enable-background="new    " width="67.101" height="1.918"/>
<rect x="238.49" y="221.049" opacity="0.75" fill="#2D2D2D" enable-background="new    " width="67.101" height="1.918"/>
<rect x="238.49" y="228.195" opacity="0.75" fill="#2D2D2D" enable-background="new    " width="67.101" height="1.918"/>
<rect x="49.96" y="190.604" fill="#2D2D2D" width="28.757" height="3.834"/>
<rect x="30.788" y="199.604" opacity="0.75" fill="#2D2D2D" enable-background="new    " width="67.101" height="1.916"/>
<rect x="30.788" y="206.754" opacity="0.75" fill="#2D2D2D" enable-background="new    " width="67.101" height="1.916"/>
<rect x="30.788" y="213.902" opacity="0.75" fill="#2D2D2D" enable-background="new    " width="67.101" height="1.918"/>
<rect x="30.788" y="221.049" opacity="0.75" fill="#2D2D2D" enable-background="new    " width="67.101" height="1.918"/>
<rect x="30.788" y="228.195" opacity="0.75" fill="#2D2D2D" enable-background="new    " width="67.101" height="1.918"/>
<g opacity="0.5">
	<path fill="#2D2D2D" d="M137.705,121.449v60.783h61.35v-60.783H137.705z M196.024,179.197h-55.285v-54.713h55.283L196.024,179.197
		L196.024,179.197z"/>
	<path fill="#2D2D2D" d="M142.067,177.682v-8.926c0,0,6.557-16.922,13.965-16.922c7.404,0,30.675,25.844,30.675,25.844h-44.641
		V177.682z"/>
	<path fill="#2D2D2D" d="M170.06,158.516c0.22-0.223,19.123,19.166,19.123,19.166h5.306v-6.566c0,0-12.897-16.668-16.666-16.668
		C174.079,154.451,169.855,158.732,170.06,158.516z"/>
	<circle fill="#2D2D2D" cx="183.667" cy="135.405" r="7.88"/>
</g>
<g opacity="0.5">
	<path fill="#2D2D2D" d="M33.664,121.449v60.783h61.35v-60.783H33.664z M91.979,179.197H36.695v-54.713h55.28L91.979,179.197
		L91.979,179.197z"/>
	<path fill="#2D2D2D" d="M38.024,177.682v-8.926c0,0,6.557-16.922,13.965-16.922c7.404,0,30.677,25.844,30.677,25.844H38.024
		V177.682z"/>
	<path fill="#2D2D2D" d="M66.018,158.516c0.22-0.223,19.122,19.166,19.122,19.166h5.309v-6.566c0,0-12.9-16.668-16.668-16.668
		C70.036,154.451,65.811,158.732,66.018,158.516z"/>
	<circle fill="#2D2D2D" cx="79.625" cy="135.405" r="7.88"/>
</g>
<g opacity="0.5">
	<path fill="#2D2D2D" d="M241.151,121.449v60.783h61.35v-60.783H241.151z M299.469,179.197h-55.291v-54.713h55.289L299.469,179.197
		L299.469,179.197z"/>
	<path fill="#2D2D2D" d="M245.511,177.682v-8.926c0,0,6.561-16.922,13.965-16.922c7.407,0,30.677,25.844,30.677,25.844h-44.642
		V177.682L245.511,177.682z"/>
	<path fill="#2D2D2D" d="M273.504,158.516c0.218-0.223,19.122,19.166,19.122,19.166h5.308v-6.566c0,0-12.896-16.668-16.668-16.668
		C277.525,154.451,273.295,158.732,273.504,158.516z"/>
	<circle fill="#2D2D2D" cx="287.112" cy="135.405" r="7.88"/>
</g>
<g>
	<g>
		<g>
			<path fill="#FFFBFF" d="M23.264,40.881h-9.538c-1.228,0-2.231,1.003-2.231,2.231v9.538c0,1.228,1.003,2.231,2.231,2.231h9.538
				c1.228,0,2.231-1.003,2.231-2.231v-9.538C25.495,41.884,24.491,40.881,23.264,40.881z M21.875,50.849
				c-0.073,0.138-0.173,0.254-0.303,0.349c-0.129,0.095-0.281,0.166-0.455,0.214c-0.173,0.049-0.363,0.074-0.568,0.074
				c-0.396,0-0.729-0.083-1.001-0.25v-0.549c0.074,0.059,0.156,0.11,0.242,0.157c0.086,0.045,0.177,0.085,0.268,0.119
				c0.093,0.033,0.185,0.058,0.278,0.074c0.093,0.017,0.183,0.025,0.267,0.025c0.583,0,0.875-0.218,0.875-0.655
				c0-0.101-0.021-0.186-0.062-0.259s-0.1-0.139-0.177-0.2c-0.077-0.06-0.168-0.116-0.276-0.167
				c-0.108-0.051-0.229-0.104-0.364-0.161c-0.182-0.074-0.338-0.149-0.468-0.226s-0.238-0.161-0.323-0.251c0,0,0-0.001,0-0.001
				c0.006,0.068,0.016,0.134,0.016,0.206c0,0.609-0.24,1.102-0.72,1.479c-0.48,0.377-1.085,0.564-1.817,0.564h-2.283v-7.117h2.259
				c0.688,0,1.233,0.15,1.635,0.451c0.402,0.301,0.604,0.694,0.604,1.177c0,0.403-0.115,0.754-0.343,1.052
				c-0.229,0.298-0.544,0.51-0.948,0.636v0.02c0.49,0.056,0.881,0.237,1.174,0.543c0.07,0.074,0.131,0.153,0.185,0.237
				c0.01-0.14,0.041-0.268,0.103-0.381c0.075-0.136,0.177-0.25,0.304-0.346c0.129-0.095,0.276-0.167,0.444-0.217
				c0.168-0.05,0.344-0.075,0.528-0.075c0.339,0,0.637,0.064,0.89,0.192v0.518c-0.294-0.189-0.611-0.284-0.952-0.284
				c-0.122,0-0.234,0.016-0.336,0.046c-0.101,0.031-0.188,0.074-0.258,0.13c-0.072,0.056-0.127,0.124-0.167,0.201
				c-0.039,0.078-0.06,0.165-0.06,0.259c0,0.097,0.015,0.183,0.046,0.256c0.03,0.072,0.079,0.138,0.144,0.197
				c0.065,0.059,0.15,0.115,0.253,0.169c0.104,0.054,0.23,0.111,0.378,0.173c0.189,0.077,0.353,0.153,0.49,0.228
				c0.139,0.076,0.253,0.157,0.342,0.246c0.089,0.087,0.156,0.186,0.2,0.294c0.043,0.11,0.065,0.235,0.065,0.379
				C21.985,50.553,21.949,50.71,21.875,50.849z"/>
		</g>
	</g>
	<g>
		<path fill="#FFFBFF" d="M17.035,48.197h-0.854v2.253h1.007c0.44,0,0.781-0.102,1.021-0.306c0.24-0.203,0.359-0.483,0.359-0.84
			C18.569,48.565,18.057,48.197,17.035,48.197z"/>
	</g>
	<g>
		<path fill="#FFFBFF" d="M17.911,46.959c0.233-0.193,0.35-0.468,0.35-0.822c0-0.608-0.407-0.913-1.222-0.913h-0.858v2.025h0.764
			C17.356,47.249,17.677,47.152,17.911,46.959z"/>
	</g>
	<path fill="#FFFBFF" d="M16.181,45.224h0.858c0.814,0,1.222,0.305,1.222,0.913c0,0.354-0.116,0.628-0.35,0.822
		c-0.234,0.193-0.555,0.29-0.966,0.29h-0.764V45.224z M18.209,50.145c-0.24,0.204-0.58,0.306-1.021,0.306h-1.007v-2.253h0.854
		c1.022,0,1.534,0.369,1.534,1.107C18.569,49.662,18.449,49.942,18.209,50.145z"/>
</g>
</svg>
